<?xml version='1.0' encoding='utf-8'?>
<svg xmlns:xlink="http://www.w3.org/1999/xlink" xmlns="http://www.w3.org/2000/svg" width="210mm" height="297mm" enable-background="new" version="1.1" viewBox="0 0 744.09 1052.4"> <defs> <linearGradient id="a"> <stop stop-color="#ffe7cf" offset="0"/> <stop stop-color="#e2c4a1" offset="1"/> </linearGradient> <linearGradient id="c"> <stop stop-color="#1a1a1a" offset="0"/> <stop offset="1"/> </linearGradient> <linearGradient id="b"> <stop stop-color="#aef" offset="0"/> <stop stop-color="#5df" offset="1"/> </linearGradient> <linearGradient id="f"> <stop stop-color="#500" offset="0"/> <stop stop-color="#800000" offset="1"/> </linearGradient> <linearGradient id="i"> <stop stop-color="#d5b48c" offset="0"/> <stop stop-color="#ffe7cf" offset="1"/> </linearGradient> <linearGradient id="h"> <stop offset="0"/> <stop offset="1"/> </linearGradient> <linearGradient id="d"> <stop offset="0"/> <stop stop-opacity="0" offset="1"/> </linearGradient> <linearGradient id="e"> <stop stop-color="#ffb89d" offset="0"/> <stop stop-color="#c0705f" offset="1"/> </linearGradient> <linearGradient id="dc" x1="248.27" x2="222.08" y1="538.55" y2="612" gradientTransform="matrix(.64079 0 0 .68381 120.53 -158.19)" gradientUnits="userSpaceOnUse"> <stop stop-color="#faac8c" offset="0"/> <stop stop-color="#fa535e" offset="1"/> </linearGradient> <linearGradient id="dd" x1="391.81" x2="394.64" y1="813.23" y2="505.2" gradientTransform="matrix(.58847 -.18343 .21316 .65196 -27.5 -91.484)" gradientUnits="userSpaceOnUse" xlink:href="#e"/> <linearGradient id="de" x1="276.42" x2="288.69" y1="377.9" y2="359.67" gradientTransform="matrix(.64079 0 0 .66582 90.661 38.981)" gradientUnits="userSpaceOnUse"> <stop offset="0"/> <stop stop-opacity="0" offset="1"/> </linearGradient> <linearGradient id="dg" x1="287.24" x2="296.96" y1="163.24" y2="141.83" gradientTransform="matrix(.64079 0 0 .66582 92.491 35.652)" gradientUnits="userSpaceOnUse"> <stop offset="0"/> <stop stop-opacity="0" offset="1"/> </linearGradient> <linearGradient id="dh" x1="254.92" x2="252.08" y1="204.23" y2="188.58" gradientTransform="matrix(.64079 0 0 .66582 92.491 35.652)" gradientUnits="userSpaceOnUse"> <stop offset="0"/> <stop stop-opacity="0" offset="1"/> </linearGradient> <linearGradient id="dj" x1="244.18" x2="300.91" y1="111.16" y2="79.376" gradientTransform="matrix(.64079 0 0 .66582 92.491 35.652)" gradientUnits="userSpaceOnUse"> <stop offset="0"/> <stop stop-opacity="0" offset="1"/> </linearGradient> <linearGradient id="dk" x1="360.25" x2="383.88" y1="65.488" y2="127.42" gradientTransform="matrix(.64079 0 0 .66582 92.491 35.652)" gradientUnits="userSpaceOnUse"> <stop offset="0"/> <stop stop-opacity="0" offset="1"/> </linearGradient> <linearGradient id="dl" x1="452.87" x2="487.44" y1="183.23" y2="216.41" gradientTransform="matrix(.63598 -.081442 .078381 .66082 77.796 63.558)" gradientUnits="userSpaceOnUse"> <stop offset="0"/> <stop stop-opacity="0" offset="1"/> </linearGradient> <linearGradient id="dm" x1="199.49" x2="203.15" y1="282.88" y2="247.35" gradientTransform="matrix(.64064 -.01433 .013792 .66566 107.45 2.6389)" gradientUnits="userSpaceOnUse" xlink:href="#d"/> <linearGradient id="di" x1="287.76" x2="321.89" y1="113.3" y2="104.33" gradientTransform="matrix(.57892 -.22118 .18521 .63141 188.53 177.57)" gradientUnits="userSpaceOnUse" xlink:href="#d"/> <linearGradient id="ds" x1="507.85" x2="459.15" y1="294.13" y2="317.15" gradientTransform="matrix(.63866 .054295 -.052254 .6636 110.63 9.8978)" gradientUnits="userSpaceOnUse"> <stop offset="0"/> <stop stop-opacity="0" offset="1"/> </linearGradient> <linearGradient id="du" x1="515.85" x2="489.24" y1="184.78" y2="166.96" gradientTransform="matrix(.64079 0 0 .66582 92.491 35.652)" gradientUnits="userSpaceOnUse"> <stop offset="0"/> <stop stop-opacity="0" offset="1"/> </linearGradient> <linearGradient id="dv" x1="283.8" x2="281.25" y1="411.77" y2="353.2" gradientUnits="userSpaceOnUse" xlink:href="#d"/> <linearGradient id="dy" x1="315.32" x2="261.49" y1="476.73" y2="386.28" gradientUnits="userSpaceOnUse" xlink:href="#i"/> <linearGradient id="z" x1="403.4" x2="380.89" y1="411.83" y2="311.83" gradientTransform="matrix(.64079 0 0 .66582 92.491 35.652)" gradientUnits="userSpaceOnUse"> <stop offset="0"/> <stop stop-opacity="0" offset="1"/> </linearGradient> <linearGradient id="y" x1="376.45" x2="365.73" y1="240.78" y2="197.21" gradientTransform="matrix(.64079 0 0 .66582 92.491 35.652)" gradientUnits="userSpaceOnUse"> <stop offset="0"/> <stop stop-opacity="0" offset="1"/> </linearGradient> <linearGradient id="w" x1="273.68" x2="296.47" y1="231.98" y2="191.27" gradientTransform="matrix(.64079 0 0 .66582 92.491 35.652)" gradientUnits="userSpaceOnUse"> <stop offset="0"/> <stop stop-opacity="0" offset="1"/> </linearGradient> <linearGradient id="u" x1="265.84" x2="276.82" y1="337.41" y2="296.13" gradientTransform="matrix(.64079 0 0 .66582 92.491 35.652)" gradientUnits="userSpaceOnUse"> <stop offset="0"/> <stop stop-opacity="0" offset="1"/> </linearGradient> <linearGradient id="s" x1="431.84" x2="386.89" y1="307.88" y2="340.71" gradientTransform="matrix(.64079 0 0 .66582 69.627 9.9754)" gradientUnits="userSpaceOnUse" xlink:href="#h"/> <filter id="g" color-interpolation-filters="sRGB"> <feBlend in2="BackgroundImage" mode="darken"/> </filter> <linearGradient id="r" x1="431.84" x2="386.89" y1="307.88" y2="340.71" gradientTransform="translate(-203.97 -109.96)" gradientUnits="userSpaceOnUse" xlink:href="#h"/> <linearGradient id="cm" x1="282.43" x2="281.25" y1="413.26" y2="353.2" gradientUnits="userSpaceOnUse" xlink:href="#d"/> <filter id="cv" color-interpolation-filters="sRGB"> <feBlend in2="BackgroundImage" mode="darken"/> </filter> <filter id="cy" color-interpolation-filters="sRGB"> <feBlend in2="BackgroundImage" mode="darken"/> </filter> <filter id="cx" color-interpolation-filters="sRGB"> <feBlend in2="BackgroundImage" mode="darken"/> </filter> <filter id="j" color-interpolation-filters="sRGB"> <feBlend in2="BackgroundImage" mode="darken"/> </filter> <filter id="cw" color-interpolation-filters="sRGB"> <feBlend in2="BackgroundImage" mode="darken"/> </filter> <filter id="cz" color-interpolation-filters="sRGB"> <feBlend in2="BackgroundImage" mode="darken"/> </filter> <filter id="da" color-interpolation-filters="sRGB"> <feBlend in2="BackgroundImage" mode="darken"/> </filter> <filter id="db" color-interpolation-filters="sRGB"> <feBlend in2="BackgroundImage" mode="darken"/> </filter> <linearGradient id="df" x1="261.53" x2="239.8" y1="462.83" y2="358.12" gradientUnits="userSpaceOnUse" xlink:href="#i"/> <linearGradient id="dn" x1="454.29" x2="415" y1="495.22" y2="440.22" gradientUnits="userSpaceOnUse" xlink:href="#f"/> <linearGradient id="do" x1="495.99" x2="453.31" y1="433.2" y2="374.63" gradientUnits="userSpaceOnUse" xlink:href="#f"/> <linearGradient id="dp" x1="229.92" x2="266.08" y1="532.82" y2="402.1" gradientUnits="userSpaceOnUse" xlink:href="#f"/> <linearGradient id="dq" x1="328.36" x2="323.98" y1="369.84" y2="334.84" gradientUnits="userSpaceOnUse" xlink:href="#b"/> <linearGradient id="dr" x1="376.88" x2="417.72" y1="486.42" y2="542.85" gradientUnits="userSpaceOnUse" xlink:href="#b"/> <linearGradient id="dt" x1="475" x2="503.46" y1="415.86" y2="397.26" gradientUnits="userSpaceOnUse" xlink:href="#b"/> <linearGradient id="dw" x1="451.93" x2="435.95" y1="355.35" y2="351.77" gradientUnits="userSpaceOnUse"> <stop offset="0"/> <stop stop-opacity="0" offset="1"/> </linearGradient> <linearGradient id="dx" x1="486.61" x2="494.24" y1="438.09" y2="499.2" gradientUnits="userSpaceOnUse"> <stop offset="0"/> <stop stop-opacity="0" offset="1"/> </linearGradient> <linearGradient id="dz" x1="479.43" x2="484.84" y1="508.81" y2="482.29" gradientUnits="userSpaceOnUse"> <stop offset="0"/> <stop stop-opacity="0" offset="1"/> </linearGradient> <linearGradient id="x" x1="457.03" x2="505.02" y1="529.76" y2="568.52" gradientUnits="userSpaceOnUse" xlink:href="#b"/> <linearGradient id="v" x1="373.43" x2="424.73" y1="663.9" y2="667.47" gradientUnits="userSpaceOnUse" xlink:href="#e"/> <linearGradient id="t" x1="106.64" x2="92.827" y1="530.31" y2="584.76" gradientTransform="matrix(.84025 0 0 .85336 131.22 -108.92)" gradientUnits="userSpaceOnUse" xlink:href="#b"/> <linearGradient id="q" x1="66.964" x2="48.646" y1="518.77" y2="498.94" gradientTransform="matrix(.84025 0 0 .85336 131.22 -108.92)" gradientUnits="userSpaceOnUse"> <stop offset="0"/> <stop stop-opacity="0" offset="1"/> </linearGradient> <linearGradient id="p" x1="29.843" x2="-17.576" y1="453.13" y2="489.23" gradientTransform="matrix(.84025 0 0 .85336 131.22 -108.92)" gradientUnits="userSpaceOnUse" xlink:href="#b"/> <linearGradient id="o" x1="46.674" x2="55.707" y1="506.99" y2="516.83" gradientTransform="matrix(.84025 0 0 .85336 131.22 -108.92)" gradientUnits="userSpaceOnUse"> <stop offset="0"/> <stop stop-opacity="0" offset="1"/> </linearGradient> <linearGradient id="n" x1="298.38" x2="250.92" y1="206.1" y2="101.04" gradientUnits="userSpaceOnUse" xlink:href="#e"/> <linearGradient id="m" x1="402.87" x2="463.06" y1="242.88" y2="312.07" gradientUnits="userSpaceOnUse" xlink:href="#e"/> <linearGradient id="l" x1="455.31" x2="491.77" y1="609.49" y2="640.8" gradientUnits="userSpaceOnUse" xlink:href="#c"/> <linearGradient id="k" x1="463.18" x2="537.14" y1="706.59" y2="677.36" gradientUnits="userSpaceOnUse" xlink:href="#c"/> <linearGradient id="cf" x1="487.03" x2="475.55" y1="863.25" y2="799.68" gradientUnits="userSpaceOnUse" xlink:href="#b"/> <linearGradient id="cg" x1="349.77" x2="341.02" y1="841.77" y2="789.62" gradientUnits="userSpaceOnUse" xlink:href="#b"/> <linearGradient id="ch" x1="295.47" x2="355.57" y1="690.22" y2="710.93" gradientUnits="userSpaceOnUse" xlink:href="#c"/> <linearGradient id="ci" x1="395.48" x2="403.64" y1="1017.5" y2="1041" gradientUnits="userSpaceOnUse"> <stop stop-color="#1a1a1a" offset="0"/> <stop offset="1"/> </linearGradient> <linearGradient id="cj" x1="381.22" x2="385" y1="1017.8" y2="1032.2" gradientUnits="userSpaceOnUse" xlink:href="#c"/> <linearGradient id="ck" x1="431.72" x2="451.17" y1="765.89" y2="689.12" gradientUnits="userSpaceOnUse"> <stop offset="0"/> <stop stop-opacity="0" offset="1"/> </linearGradient> <radialGradient id="cu" cx="113.04" cy="140.14" r="39.959" gradientTransform="matrix(.95943 -.38296 .28762 .68882 -36.435 91.444)" gradientUnits="userSpaceOnUse"> <stop stop-color="#eba189" offset="0"/> <stop stop-color="#ffb89d" offset="1"/> </radialGradient> <linearGradient id="cl" x1="404.55" x2="468.87" y1="216.46" y2="292.22" gradientUnits="userSpaceOnUse" xlink:href="#a"/> <linearGradient id="cn" x1="383.57" x2="400.22" y1="199.73" y2="261.85" gradientUnits="userSpaceOnUse" xlink:href="#a"/> <linearGradient id="co" x1="369.93" x2="351.39" y1="161.24" y2="194.58" gradientUnits="userSpaceOnUse" xlink:href="#a"/> <linearGradient id="cp" x1="245.42" x2="247.22" y1="173.8" y2="186.66" gradientUnits="userSpaceOnUse" xlink:href="#a"/> <linearGradient id="cq" x1="314.03" x2="307.94" y1="125.59" y2="135.95" gradientUnits="userSpaceOnUse" xlink:href="#a"/> <linearGradient id="cr" x1="258.37" x2="269.79" y1="163.14" y2="171.79" gradientUnits="userSpaceOnUse" xlink:href="#a"/> <linearGradient id="cs" x1="236.4" x2="253.7" y1="163.21" y2="188.74" gradientUnits="userSpaceOnUse" xlink:href="#a"/> <linearGradient id="ct" x1="266.72" x2="277.99" y1="158.84" y2="191.7" gradientUnits="userSpaceOnUse" xlink:href="#a"/> </defs> <path d="m87.105 131.65c2.6871-2.435 4.4096-14.922 3.6526-15.912 0.28662-1.0582-0.15403-8.8988-0.11712-9.5293 0.47731-0.73362-0.08019-10.683 3.8098-10.789 3.0549-0.08379 3.2437 7.6313 3.473 8.2958-0.27966 1.1918-0.0087 8.5433 0.76834 9.4593-0.87443 1.5287 0.6022 17.031 2.919 16.373 2.36-0.6707 2.336-18.029 1.825-20.958 0.70915-2.5298-0.22682-10.749-0.63196-12.272 0.70042-2.2748-1.2853-14.077 3.662-14.063 4.852 0.01435 2.2618 11.872 3.506 13.812-0.17014 1.4864 0.37803 9.3169 1.3131 11.431 0.17353 2.4318 0.21641 17.139 2.1612 16.712 2.1219-0.46556 3.0016-15.926 3.3072-23.891 1.1997-3.3596 1.7905-11.522 1.9828-15.954 2.2706-4.637 1.156-7.9138 4.1328-7.7547 3.501 0.18715 3.0352 5.5043 3.8146 9.5841-1.1499 7.4384-1.7428 9.8661-1.1786 13.513 0.10384 4.3885-1.7346 23.732-0.40182 22.95 1.5265-0.8957 4.6589-10.038 6.7563-19.274 1.265-4.5337 2.4301-8.275 3.4799-12.711 2.1915-7.1712 3.7326-8.6494 7.0838-7.6237 3.1739 0.9712 1.0623 7.2587 1.3002 9.6716-1.2845 4.2962-2.5386 8.6815-3.1652 12.877-1.4612 7.6282-4.007 13.293-3.7636 19.042 0.0393 0.92467 0.75987 1.7428 0.74358 2.5669-0.0775 3.8024-0.52006 9.185 0.45034 9.9421 0.44076 0.34353 5.3927-0.71507 5.3927-0.71507 2.4515-2.6471 4.3495-3.0834 5.0333-5.2842-0.69452-1.8685 6.5567-4.1507 11.101-3.7248 4.8112 0.45096-0.71279 5.7925-0.97335 8.2836-1.0782 2.5122-3.0204 3.2441-4.6978 5.9163-3.7956 1.0779-5.7622 4.7804-5.7622 4.7804-0.60155 1.5356-7.4321 9.5665-9.9392 13.064-6.4861 9.0492-9.6982 12.537-13.225 18.804-55.616 12.214-44.897 7.5011-39.916-39.95 0.41035-2.2902 1.2137-4.5765 2.1032-6.6726z" fill="url(#cu)"/> <path d="m179.35 396.7c-8.9507-5.3116-34.51-29.836-41.234-36.079-15.894-14.757 13.813-22.594 31.523-46.469 13.421-18.094 10.023 0.54892 62.225 5.8583 28.104 2.8584 67.33 16.689 77.154 36.322 7.9418 15.871 19.172 40.291 8.6589 52.623-21.021 24.656-85.015 19.381-138.33-12.255z" fill="url(#t)" stroke="url(#q)" stroke-linecap="square" stroke-width=".8005"/> <path d="m74.178 247.76c-15.775-60.619-16.951-110.75 16.899-78.814 4.7368 4.4689 16.159 11.902 24.599 6.2179 8.3159-5.6002 56.165-18.081 40.217 16.882-10.17 22.296-20.446 22.46 36.012 116.7 3.9512 6.5956 17.389 42.679 3.4806 53.897-8.9711 7.2352-33.555 3.2125-40.343 5.5118-18.916 6.4067-69.689-77.452-80.865-120.4z" fill="url(#p)" stroke="url(#o)" stroke-linecap="square" stroke-width=".8005"/> <path d="m391.91 791.43c7.5432 39.124 3.5882 81.731-12.746 116.85-4.1107 8.8388-52.009 16.998-52.566 2.7887-0.44514-11.357-19.502-82.59-39.841-106.01-26.638-30.667-4.9861-80.895 42.059-80.314 26.102 0.32206 54.904 24.195 63.095 66.678z" fill="url(#cg)" stroke="#000" stroke-linecap="square" stroke-width=".85768"/> <path d="m405.57 645.67c-16.301 53.696-19.914 93.372-19.154 103.58 1.4184 19.033-112.06 53.962-112.41 33.572-1.1448-67.006-4.8415-98.952-12.187-123.64-16.882-56.73 59.302-127.09 91.584-116.59 30.643 9.9662 66.791 54.896 52.165 103.08z" fill="url(#ch)"/> <g transform="matrix(.88061 -.052594 .052896 .83219 -134.22 106.43)" stroke="#000" stroke-linecap="square" stroke-width=".96057"> <path d="m546.52 989.65c11.286 15.001 15.204 29.544 10.745 54.564-6.2968 35.332-3.2452 38.028-47.329 37.686 0 0-0.87372-14.372-1.9827-12.926 0 0-17.188 11.267-21.417 11.252-66.242-0.2369-104.11 1.5419-125.04-2.4282-10.512-24.472-21.872-45.194-7.6094-60.28 8.7711-9.2766 42.383-6.1659 59.104 0.5398 31.742 12.73 39.07-18.83 42.884-18.395 17.864 2.0352 62.597-3.8921 67.453-8.9672 7.665-8.0104 15.795-10.878 23.193-1.0453z" fill="#333"/> <path d="m547.89 986.03c11.286 15.001 15.204 29.544 10.745 54.564-6.2968 35.332-3.2452 38.028-47.329 37.686 0 0-1.8839-11.847-2.9929-10.4 0 0-16.683 7.9844-20.912 7.9693-66.242-0.2369-111.18 2.8046-128.32-4.196-10.512-19.326-18.084-36.759-3.8213-58.764 6.9437-10.713 46.997 0.5273 64.66 4.0754 25.45 5.1126 31.156-24.209 37.328-20.921 15.868 8.4542 62.597-3.8921 67.453-8.9672 7.665-8.0104 15.795-10.878 23.193-1.0452z" fill="url(#ci)"/> </g> <path d="m299.58 930.51c2.0805 6.6315 4.0926 10.383 7.2042 17.401 15.49-3.1666 16.459-3.6669 23.105-15.496-5.3209-4.0745-12.224-9.5893-16.154-12.935" fill="none" stroke="#fc0" stroke-width="6"/> <path d="m264.74 380.41c35.052-52.974 65.595-54.591 110.98-56.771 193.4 21.9-44.483 209.69-143.93 260.31-9.792-74.996-3.1092-149.05 32.944-203.54z" fill="#450f0f"/> <path d="m557.21 563.65c10.421 89.081-71.143 125.84-169.11 115.12-73.843-8.0795-140.84-69.063-147.97-106.49-4.354-22.846 1.8295-37.552 5.9651-62.568 7.4649-45.155 25.502-91.461 34.936-131.33 8.0692-34.098 66.689-39.043 108.35-51.768 103.76-31.695 94.758 48.008 127.04 106.12 0 0 31.89 54.717 40.802 130.9z" fill="url(#dr)" stroke="#000" stroke-linecap="square" stroke-width=".65318"/> <path d="m553.62 659.65c-86.489 53.582-103.49 55.066-187.46 40.051-76.962-13.761-94.675-24.992-114.48-74.822 0 0-5.4634-26.143-10.046-43.685 103.74 39.266 206.59 9.2376 307.61-63.893 20.982 40.722 17.366 116.43 4.379 142.35z" fill="url(#l)"/> <g transform="matrix(1.2076 .094406 -.091282 1.1366 -25.06 -493.92)"> <path d="m296.43 837.36c10.502 45.959 177.44-9.4661 213.57-41.429 12.409 11.898 23.428 25.571 28.571 45.714-102.97 83.068-166.43 84.366-249.37 71.966-8.5842-15.383 6.9016-58.909 7.225-76.251z" fill="#405" stroke="#000" stroke-linecap="square" stroke-width=".55578"/> <g stroke="#fc0"> <path d="m520 807.36c-38.532 31.697-205.2 84.224-232.78 40.704" fill="none" stroke-width="2.5"/> <path d="m536.92 835.19c-55.861 52.809-139.78 98.387-245.91 70.519" fill="none" stroke-width="2.5"/> <path transform="matrix(.51883 -.051557 .051566 .51893 37.79 515.89)" d="m588.57 799.51c-6.6208 0-4.6623-12.403-9.3439-17.085-4.6816-4.6816-17.085-2.7231-17.085-9.3439s12.403-4.6623 17.085-9.3439c4.6816-4.6816 2.7231-17.085 9.3439-17.085s4.6623 12.403 9.3439 17.085c4.6816 4.6816 17.085 2.7231 17.085 9.3439s-12.403 4.6623-17.085 9.3439c-4.6816 4.6816-2.7231 17.085-9.3439 17.085z" fill="#a00" stroke-linecap="square" stroke-width="2.367"/> <path transform="matrix(.40387 -.32975 .32981 .40394 23.246 711.1)" d="m588.57 799.51c-6.6208 0-4.6623-12.403-9.3439-17.085-4.6816-4.6816-17.085-2.7231-17.085-9.3439s12.403-4.6623 17.085-9.3439c4.6816-4.6816 2.7231-17.085 9.3439-17.085s4.6623 12.403 9.3439 17.085c4.6816 4.6816 17.085 2.7231 17.085 9.3439s-12.403 4.6623-17.085 9.3439c-4.6816 4.6816-2.7231 17.085-9.3439 17.085z" fill="#a00" stroke-linecap="square" stroke-width="2.367"/> <path transform="matrix(.51577 .076315 -.076329 .51586 68.539 444.44)" d="m588.57 799.51c-6.6208 0-4.6623-12.403-9.3439-17.085-4.6816-4.6816-17.085-2.7231-17.085-9.3439s12.403-4.6623 17.085-9.3439c4.6816-4.6816 2.7231-17.085 9.3439-17.085s4.6623 12.403 9.3439 17.085c4.6816 4.6816 17.085 2.7231 17.085 9.3439s-12.403 4.6623-17.085 9.3439c-4.6816 4.6816-2.7231 17.085-9.3439 17.085z" fill="#a00" stroke-linecap="square" stroke-width="2.367"/> <path transform="matrix(.52129 .010052 -.010054 .52138 49.761 480.75)" d="m588.57 799.51c-6.6208 0-4.6623-12.403-9.3439-17.085-4.6816-4.6816-17.085-2.7231-17.085-9.3439s12.403-4.6623 17.085-9.3439c4.6816-4.6816 2.7231-17.085 9.3439-17.085s4.6623 12.403 9.3439 17.085c4.6816 4.6816 17.085 2.7231 17.085 9.3439s-12.403 4.6623-17.085 9.3439c-4.6816 4.6816-2.7231 17.085-9.3439 17.085z" fill="#a00" stroke-linecap="square" stroke-width="2.367"/> </g> </g> <path d="m389.98 311.59c19.55-12.34 74.544 2.3032 85.087 24.923-3.9639 9.2122-35.597 11.761-42.551 31.936-14.501 42.075-16.971 94.426-9.1279 102.09 7.1068 6.9406 41.021 20.906 59.991-23.361 5.3705-12.532-1.543-97.547-35.342-97.313-7.7046 0.0535 26.025-10.052 26.343-13.396 0.75498-7.936 68.931 133.16 65.995 148.05-16.518 65.992-130.73 89.579-167.57 82.897-6.1425-42.786 2.4188-178.81 18.308-219.02 6.298-15.938-1.6003-36.617-1.131-36.794z" fill="url(#dn)" stroke="#000" stroke-linecap="square" stroke-width=".55578"/> <path d="m299.27 373.53c-28.453 47.042-47.758 147.56-37.083 175.87 3.1279 8.2944-29.447 28.546-30.507 34.337-24.069-10.476-15.819-151.9 37.113-222.94 7.7691-10.426 7.6804-25.139 17.057-28.707 70.966-32.189 19.202 19.091 13.42 41.437z" fill="url(#dp)" stroke="#000" stroke-linecap="square" stroke-width=".65318"/> <path d="m391.39 320.65c7.6335-0.29587 32.608-14.42 30.734-12.825-20.359 52.816-37.757 71.058-38.371 84.868-0.4543 5.9048-10.134 43.835-22.143 53.485-19.07-14.301-22.428-23.265-39.649-41.342-7.703-7.3256-15.61 12.294-31.332 29.576-14.34-36.079-8.303-79.025 3.444-96.241 3.484-0.0909 9.6428-0.4732 9.6428-0.4732s2.1926 18.301 3.4877 21.448c4.0679 9.883 7.8007 29.936 12.09 29.305 24.159-3.5501 57.869-51.768 68.018-57.612 2.1536-1.24 0.51927-10.051 4.0781-10.189z" fill="url(#dq)" stroke="#000" stroke-linecap="square" stroke-width=".65318"/> <path transform="matrix(.62537 -.14518 .27897 .59941 234.75 208.26)" d="m-5.7833 17.025 75.485-0.33938v6.8583l-78.077-1.9715z" filter="url(#g)"/> <path d="m249.51 175.29c-4.7988 5.0291-5.7623 24.382-7.2439 32.089-0.45136 2.348-10.085-26.446-7.8424-51.337 1.0971-12.179-1.6683-8.7078 7.8703-7.1217 9.5385 1.5861 14.545 18.689 7.216 26.37z" fill="url(#cp)" stroke="url(#dm)" stroke-linecap="square" stroke-width=".19596"/> <path d="m386.5 267.18c5.1242 33.948 8.2964 47.462 3.9159 53.23-1.4971 1.9713-1.9943 5.7721-2.2922 8.2638-0.26203 2.1921-2.3328 2.964-4.4005 4.6966-4.4714 3.7469-9.3656 9.4625-15.693 16.45-4.593 5.0721-9.0977 10.717-15.205 16.108-12.08 12.129-21.898 20.465-34.264 22.363 0 0-1.8022-1.3856-2.5081-3.1709-1.206-3.0503-3.0022-8.1228-4.1791-12.528-1.0738-4.0196-3.026-9.5153-4.703-13.902-0.61569-1.6105-1.0207-4.9002-1.2328-6.6045-0.21148-1.6997-1.0917-6.8561-1.2227-8.7017-0.96362-13.575-6.4872-24.748-9.1929-32.003-14.509-38.904-3.2377-91.319 22.641-102.92 53.142-23.822 59.168-2.0162 68.336 58.719z" fill="url(#dd)"/> <path d="m418.04 207.69c0 35.256-18.513 64.581-49.528 95.068-18.161 17.852-46.183 37.283-76.413 36.757-38.061-7.258-54.329-47.809-56.277-85.115 4.9439-9.2277 13.742-18.291 8.8533-28.568-2.8438-12.621-1.6386-23.718-0.31916-33.415 7.0813-51.839 57.35-86.724 97.996-84.269 47.823 2.8884 75.688 47.538 75.688 99.542z" fill="url(#n)" stroke="url(#z)" stroke-linecap="square" stroke-width=".13064"/> <path d="m291.59 282.86c3.5219 12.984-12.405 20.852-22.199 19.737-8.6692-0.98673-9.383-10.412-9.383-19.737s7.0698-16.883 15.791-16.883 13.356 7.9086 15.791 16.883z" fill="#a00" stroke="url(#de)" stroke-linecap="square" stroke-width=".19596"/> <g transform="matrix(.64024 .027642 -.026603 .66524 102.03 28.069)" stroke-linecap="square" stroke-width=".6"> <path d="m276.39 346.94c-0.89356 10.074 1.5718 8.1681 11.626 12.583 4.6689 2.05 12.606 5.4761 17.992 8.2672 2.2472 1.1646 11.231 12.506 11.974 17.691 0.24812 1.7309-0.60128-6.0449 0.40339-4.7189 4.563 6.0224 8.5756 11.704 9.1646 12.598 2.8438 4.3158-5.7386-15.543-7.7978-16.179 8.1316 8.8316 16.769 27.717 16.769 27.717 2.7833 6.2356 11.001 21.822 9.4546 16.97l-2.4252-7.6111c-0.76948-2.4149 6.6489 7.3371 6.6489 7.3371l-2.4656-7.6613c-2e-3 -1e-3 -5.2584-10.253 12.021 15.673 5.5092-41.339-4.7986-76.273-31.331-92.282-35.791-21.376-50.249-10.512-52.034 9.6166z" fill="url(#dy)" stroke="url(#dv)"/> <path d="m292.91 342.88c1.0148 9.5021-1.6152 7.8366-12.262 12.601-4.9437 2.2124-13.349 5.9177-19.048 8.8741-2.3782 1.2336-11.842 12.506-12.597 17.465-0.25208 1.6558 0.59873-5.7673-0.45921-4.4521-4.8052 5.9736-9.0282 11.592-9.6477 12.474-2.991 4.2564 5.9908-15.071 8.173-15.791-8.5756 8.8428-17.623 27.249-17.623 27.249-2.9142 6.0735-11.537 21.327-9.9269 16.637l2.5249-7.3574c0.80114-2.3344-7.0112 7.3403-7.0112 7.3403l2.5675-7.4074c2e-3 -9.6e-4 5.5158-10.026-12.66 15.554-6.1206-38.888 3.1268-72.518 31.192-89.224 37.861-22.328 54.749-12.949 56.777 6.0372z" fill="url(#df)" stroke="url(#cm)"/> </g> <ellipse transform="matrix(.64079 0 0 .66582 147.37 78.703)" cx="173.57" cy="216.1" rx="36.113" ry="31.315" fill="none" filter="url(#g)" stroke="url(#r)" stroke-linecap="square" stroke-width="2.806"/> <path d="m281.87 221.56c2.8602-0.41876 5.7205-0.21565 6.9675 3.1692l-0.58391 3.0114c-1.692-3.2932-3.8052-3.6045-7.4252-3.0504z"/> <ellipse cx="264.88" cy="245.76" rx="33.012" ry="25.558" fill="url(#dc)" stroke="url(#u)" stroke-linecap="square" stroke-width=".39583"/> <path d="m264.38 175.2c13.125-4.2059 22.836 10.945 24.702 17.157 1.8657 6.2115-7.1394-1.9816-20.634 0.68146-18.625 3.6756-34.386 19.305-34.903 13.223-0.55201-6.4817 17.71-26.855 30.835-31.061z" fill="#d5d6d5" stroke="url(#w)" stroke-linecap="square" stroke-width=".13064"/> <path d="m318.38 221.79c-0.30751 2.8795-3.1963-1.4824-7.5203-1.9809-4.3241-0.49855-8.8508 3.2146-8.5433 0.33503 0.3075-2.8796 4.3842-6.0098 8.7082-5.5112 4.324 0.49853 7.6629 4.2775 7.3554 7.1571z"/> <path d="m270.2 215.57c-0.0613 2.8965-3.3098-1.183-7.6594-1.2825-4.3495-0.0995-8.5428 4.0148-8.4814 1.1183 0.0613-2.8965 3.8559-6.3889 8.2054-6.2894 4.3496 0.0995 7.9968 3.5571 7.9354 6.4536z"/> <path d="m288.53 292.86c1.71 3.6579-8.1076 8.7465-14.112 9.5304-6.2205 0.81204-10.532-0.10838-12.95-6.6174-1.7292-4.6558 6.2434-9.5117 12.816-9.5117s12.148 2.1098 14.246 6.5987z" fill="#c83737"/> <path d="m337.67 165.29c20.175 0.87534 65.226 1.7379 84.539 8.5965 6.5505 2.3262 10.469-16.337 9.7398-21.867-0.87831-6.658-18.445-21.537-14.608-21.537 0.50799 0 2.2263-7.8453 2.2263-7.8453 0.0711 0.14775-6.2784 2.7172-5.1366-0.33069 1.1446-3.0554 2.2815-4.6223 2.1408-4.6641 0 0-13.768 0.8875-17.644-1.1924-23.626-12.678-29.956-5.2813-63.608-17.289-35.096-12.523-31.232-0.17901-42.525 8.9983-11.729 9.5315-30.473 38.656-4.7777 47.548 17.401 3.5893 34.288 8.8739 49.652 9.5836z" fill="url(#co)" stroke="url(#dl)" stroke-linecap="square" stroke-width=".32659"/> <path d="m292.17 126.93c25.966 7.7414 97.846 26.194 78.375-3.7249-2.9656-4.5569-7.4538-5.21-16.754-7.8703-2.3964-0.6855-15.206-3.3023-35.966-23.063-20.057-15.58-35.562-33.203-59.872-17.511-11.043 7.1274-12.722 9.6649-19.694 18.463-5.6139 7.0839-9.7573 20.665-11.682 28.947-3.9777 17.114 42.174-2.2222 65.593 4.7598z" fill="url(#cq)" stroke="url(#dk)" stroke-linecap="square" stroke-width=".32659"/> <path d="m259.07 142.13c-7.3801 18.832-1.9634 35.233-3.8606 56.041-0.31997 3.5093-45.899-39.207-23.904-92.712 8.0892-19.678 28.951-35.702 43.568-36.692 3.5021-0.23704 3.9002 2.6079 6.8384 3.9185 15.106 6.7382-13.507 46.137-22.641 69.444z" fill="url(#cs)" stroke="url(#dj)" stroke-linecap="square" stroke-width=".32659"/> <path d="m289.46 143.01c-16.331 13.657-18.527 30.879-30.218 48.783-79.938-117.3 113.04-119.61 30.218-48.783z" fill="url(#cr)" stroke="url(#dh)" stroke-linecap="square" stroke-width=".19596"/> <path d="m306.16 139.46c-17.854 8.3232-24.838 24.072-40.041 37.759-2.5639 2.3084-26.23-112.32 26.654-93.199 41.284 30.439 70.273 41.55 47.381 53.337-4.9937 2.5713-25.204-1.5598-33.994 2.1034z" fill="url(#ct)" stroke="url(#dg)" stroke-linecap="square" stroke-width=".26127"/> <path d="m456.3 224.53c-5.4006 97.053-93.117 128.69-69.175 57.866 7.6891-16.877 3.9122-42.166-0.2332-65.951-9.8635-56.596 5.7748-117.92 37.217-78.908 7.9334 9.8447 22.452 28.079 24.394 33.798 6.1754 18.181 9.0242 28.219 7.797 53.195z" fill="url(#cl)" stroke="url(#du)" stroke-linecap="square" stroke-width=".32659"/> <path d="m432.51 232.1c-10.986 28.71-23.853 48.075-43.379 46.415s-10.721-24.234-8.7006-49.889c2.0201-25.655 10.513-41.2 30.038-39.54 19.526 1.66 31.194 19.094 22.041 43.013z" fill="url(#m)" stroke="url(#ds)" stroke-linecap="square" stroke-width=".19596"/> <g transform="matrix(.6283 -.1308 .12588 .65284 65.15 96.169)" fill="none" stroke="#000"> <path d="m369.32 261.31c7.8809-3.3091 16.455-5.5844 26.692-5.3788" stroke-width=".78629px"/> <path transform="matrix(1.1568 .076673 -.063392 .95642 -43.168 -17.943)" d="m371.5 262.94c6.6954-2.8605 13.84-4.3107 22.064-2.3761" filter="url(#g)" stroke-width=".79708px"/> <path transform="matrix(1.1473 .29714 -.19723 .7615 -6.8741 -58.663)" d="m376.11 275.06c6.6954-2.8605 13.84-4.3107 22.064-2.3761" filter="url(#cv)" stroke-width=".79708px"/> </g> <rect transform="matrix(.97409 -.22614 .42194 .90662 0 0)" x="213.7" y="297.31" width="49.584" height="4.4044"/> <path d="m398.22 190.71c-8.1288 5.4898-9.6769 5.129-13.837 21.84-1.4279 5.7356-4.6792 16.925-4.808 27.126-0.16082 12.732 0.48423 16.847-7.628 17.37-1.2526 0.0808-3.1915 0.77199-4.1763-0.83752-0.58578-0.95738 0.68934-7.9198 0.49271-9.7271-0.0974-0.89564-0.91839 9.4112-1.4148 8.5001-1.498-2.7491-1.5769-14.32-1.8581-19.697 0.5764-7.506 1.3799-9.386 3.7484-14.152 1.7201-4.5592-7.6411 13.045-8.1887 19.005-0.41533 4.5208-12.349-33.464 3.6416-59.475 3.1204-5.0756 8.1927-9.1765 13.088-11.525 6.933-1.7658 16.231-1.5938 21.525-2.5921 12.886-2.4298 44.235 35.063 32.633 29.816-8.1123-3.6691-19.848-12.058-33.217-5.6523z" fill="url(#cn)" stroke="url(#di)" stroke-linecap="square" stroke-width=".19127"/> <path d="m325.99 178.18c-14.52-4.9776-26.631 10.738-28.677 17.153-2.0454 6.415 10.775-3.5058 25.295 1.4718s34.086 21.934 36.131 15.519c2.0454-6.415-18.229-29.166-32.749-34.143z" fill="#d5d6d5" stroke="url(#y)" stroke-linecap="square" stroke-width=".19987"/> <ellipse cx="311.55" cy="227.07" rx="23.141" ry="20.85" fill="none" stroke="url(#s)" stroke-linecap="square" stroke-width="1.8328"/> <path transform="matrix(1.7464 .052922 -.15565 .59379 -214.98 41.261)" d="m300.06 185.64c6.2838-4.917 13.022-8.4008 22.064-2.3761" fill="none" filter="url(#cy)" stroke="#000" stroke-width=".54179"/> <path transform="matrix(2.1479 .064095 -.19143 .71916 -333.86 14.529)" d="m301.14 195.99c6.6182-5.0496 13.733-7.365 22.064-2.3761" fill="none" filter="url(#cx)" stroke="#000" stroke-width=".58787"/> <g transform="matrix(-.28464 -.056134 -.066687 .4036 373.66 126.67)" fill="none" filter="url(#j)" stroke="#000"> <path d="m369.32 261.31c7.8809-3.3091 16.455-5.5844 26.692-5.3788" stroke-width=".78629px"/> <path transform="matrix(1.1568 .076673 -.063392 .95642 -43.168 -17.943)" d="m371.5 262.94c6.6954-2.8605 13.84-4.3107 22.064-2.3761" filter="url(#j)" stroke-width=".79708px"/> <path transform="matrix(1.1473 .29714 -.19723 .7615 -6.8741 -58.663)" d="m376.11 275.06c6.6954-2.8605 13.84-4.3107 22.064-2.3761" filter="url(#cw)" stroke-width=".79708px"/> </g> <path transform="matrix(-.059569 1.2827 -.6607 -.14198 470.07 -77.833)" d="m300.06 185.64c6.2838-4.917 13.022-8.4008 22.064-2.3761" fill="none" filter="url(#cz)" stroke="#000" stroke-width=".54152"/> <path transform="matrix(1.0796 .074923 -.069327 .56587 -46.231 189.5)" d="m300.06 185.64c5.1173-6.3186 11.47-12.025 22.064-2.3761" fill="none" filter="url(#da)" stroke="#000" stroke-width=".54179"/> <path transform="matrix(-.028618 .84182 -.31742 -.093179 404.12 49.994)" d="m300.06 185.64c6.2838-4.917 13.022-8.4008 22.064-2.3761" fill="none" filter="url(#db)" stroke="#000" stroke-width=".54179"/> <path d="m527.78 807.16c7.7396 40.127 3.6192 83.832-13.259 119.87-4.2476 9.068-53.647 17.459-54.207 2.8842-0.44778-11.649-20.028-84.706-40.978-108.71-27.438-31.444-0.962-79.07 43.449-82.399 26.839-2.0123 56.591 24.792 64.995 68.365z" fill="url(#cf)" stroke="#000" stroke-linecap="square" stroke-width=".88207"/> <path d="m550.66 664.1c-20.38 53.918-26.761 94.299-26.664 104.79 0.18219 19.573-119.64 48.05-118.63 27.157 3.3196-68.66 2.3555-101.6-3.5473-127.34-13.566-59.151 69.559-126.28 102.08-113.47 30.866 12.166 65.051 60.474 46.765 108.85z" fill="url(#k)" stroke="url(#ck)" stroke-linecap="square" stroke-width=".88207"/> <g transform="matrix(.90978 -.010943 .010945 .85507 28.321 81.033)" stroke="#000" stroke-linecap="square" stroke-width=".96057"> <path d="m546.52 989.65c11.286 15.001 15.204 29.544 10.745 54.564-6.2968 35.332-3.2452 38.028-47.329 37.686 0 0-0.87372-14.372-1.9827-12.926 0 0-17.188 11.267-21.417 11.252-66.242-0.2369-104.11 1.5419-125.04-2.4282-10.512-24.472-21.872-45.194-7.6094-60.28 8.7711-9.2766 42.383-6.1659 59.104 0.5398 31.742 12.73 39.07-18.83 42.884-18.395 17.864 2.0352 62.597-3.8921 67.453-8.9672 7.665-8.0104 15.795-10.878 23.193-1.0453z" fill="#333"/> <path d="m547.89 986.03c11.286 15.001 15.204 29.544 10.745 54.564-6.2968 35.332-3.2452 38.028-47.329 37.686 0 0-1.8839-11.847-2.9929-10.4 0 0-16.683 7.9844-20.912 7.9693-66.242-0.2369-111.18 2.8046-128.32-4.196-10.512-19.326-18.084-36.759-3.8213-58.764 6.9437-10.713 46.997 0.5273 64.66 4.0754 25.45 5.1126 31.156-24.209 37.328-20.921 15.868 8.4542 62.597-3.8921 67.453-8.9672 7.665-8.0104 15.795-10.878 23.193-1.0452z" fill="url(#cj)"/> </g> <path d="m432.85 946.04c1.9643 6.6669 3.9105 10.453 6.8988 17.524 15.543-2.8953 16.52-3.3786 23.372-15.089-5.2489-4.1669-12.055-9.8015-15.925-13.215" fill="none" stroke="#fc0" stroke-width="6"/> <g transform="translate(1.0714 5)"> <path d="m393.82 684.48c-0.90085-0.0368-9.5124 12.025-9.4148 13.437-0.89337 0.82734-5.4158 8.2518-5.8261 8.828-0.87315 0.40058-4.3339 9.7211-8.6306 8.2989-4.006-1.3261 0.55724-9.3807 0.74539-10.154 0.96689-0.95866 5.1123-8.112 4.952-9.4647 1.71-0.90929 7.3136-11.088 4.8097-11.902-2.5506-0.82862-8.5418 9.4824-9.8267 12.583-2.1576 1.9632-6.1699 9.8135-6.7109 11.512-1.9973 1.7263-5.9313 11.85-10.48 10.271-4.3344-1.504 2.3275-10.394 2.3537-13.01 1.0431-1.3066 6.082-8.3113 6.4933-10.901 1.2949-2.4183 7.742-14.219 5.7155-15.022-2.2111-0.87562-7.9782 9.6501-13.016 17.028-3.1002 2.4468-7.2109 8.4798-10.034 12.571-4.839 2.9954-7.0371 9.8777-10.627 7.4739-3.4053-2.2804 0.73623-7.8301 2.464-12.19 5.4919-6.3532 6.0536-8.5849 7.7188-12.401 2.5275-4.2341 12.746-16.368 11.087-16.689-2.1858-0.42222-5.994 3.47-12.491 12.107-4.1212 3.4004-7.6461 7.9156-10.542 11.81-6.2811 5.4524-7.865 8.1363-10.865 5.4106-3.2605-2.9624 3.2264-10.124 4.4515-12.564 4.0723-3.0674 6.4881-6.5248 8.6457-10.716 5.889-6.3401 8.1218-9.5789 11.335-15.192 0.51663-0.90299-0.29635-1.8407 0.21088-2.6136 2.3426-3.5646 2.016-6.2386 1.5844-7.5608-0.19625-0.60015-2.616-0.53229-2.616-0.53229-3.2716-0.20008-6.1912 2.296-8.6411 3.6664 2.8256 2.7742-7.8487 11.678-12.922 9.7639-4.0504-1.5278 0.52428-6.8348 0.73619-10.483 2.4832-1.7171 7.3938-10.739 11.959-14.526 5.3487-1.5738 8.0443-4.5424 8.0443-4.5424 5.7061-4.226 38.809-20.643 45.945-20.45 57.961 22.941 39.599 29.408 7.6992 64.151-0.57755 0.62901-3.8423 1.2884-4.3055 2.0009z" fill="url(#v)"/> <path d="m524.04 437.09c18.321 72.557-6.7676 68.107-43.166 70.259-23.411 1.3837-15.467-11.519-40.379-54.6-15.236-26.348-31.684-67.548-23.162-89.158 6.8891-17.47 18.173-43.551 35.072-43.38 33.707 0.34029 53.586 45.4 71.635 116.88z" fill="url(#dt)" stroke="url(#dx)" stroke-linecap="square" stroke-width=".84678"/> <path d="m488.71 630.41c-40.073 51.696-80.605 79.956-83.795 29.48-0.4421-6.9973-9.3054-14.503-10.154-25.429-1.4684-18.898-42.449 3.2061-13.017-40.899 12.955-19.413 31.864-0.53438 76.82-109.21 4.6439-11.226 70.75-24.058 70.78-3.9634 0.0548 36.167-12.095 113.2-40.634 150.02z" fill="url(#x)" stroke="url(#dz)" stroke-linecap="square" stroke-width=".84678"/> </g> <path d="m420.12 414.7c-3.2365-11.938-7.841-16.649-5.7379-40.621s15.604-61.406 29.454-59.327c19.396 2.9114 43.921 21.268 33.357 20.989-50.575-1.3359-53.409 92.476-57.073 78.959z" fill="url(#do)" stroke="url(#dw)" stroke-linecap="square" stroke-width=".6"/> </svg>